<mxfile host="Electron" agent="Mozilla/5.0 (Windows NT 10.0; Win64; x64) AppleWebKit/537.36 (KHTML, like Gecko) draw.io/26.1.1 Chrome/132.0.6834.210 Electron/34.3.3 Safari/537.36" version="26.1.1">
  <diagram name="Page-1" id="CmIkMIVO5q9vq59_0X-e">
    <mxGraphModel dx="264" dy="638" grid="1" gridSize="10" guides="1" tooltips="1" connect="1" arrows="1" fold="1" page="1" pageScale="1" pageWidth="827" pageHeight="1169" math="0" shadow="0">
      <root>
        <mxCell id="0" />
        <mxCell id="1" parent="0" />
        <mxCell id="LNo4fqlTwBd2RmvAoGv3-1" value="&lt;b&gt;Chef&lt;/b&gt;" style="swimlane;fontStyle=0;childLayout=stackLayout;horizontal=1;startSize=30;horizontalStack=0;resizeParent=1;resizeParentMax=0;resizeLast=0;collapsible=1;marginBottom=0;whiteSpace=wrap;html=1;" vertex="1" parent="1">
          <mxGeometry x="1060" y="40" width="140" height="150" as="geometry" />
        </mxCell>
        <mxCell id="LNo4fqlTwBd2RmvAoGv3-2" value="&lt;b&gt;&lt;u&gt;numChef&lt;/u&gt;&lt;/b&gt;" style="text;strokeColor=none;fillColor=none;align=left;verticalAlign=middle;spacingLeft=4;spacingRight=4;overflow=hidden;points=[[0,0.5],[1,0.5]];portConstraint=eastwest;rotatable=0;whiteSpace=wrap;html=1;" vertex="1" parent="LNo4fqlTwBd2RmvAoGv3-1">
          <mxGeometry y="30" width="140" height="30" as="geometry" />
        </mxCell>
        <mxCell id="LNo4fqlTwBd2RmvAoGv3-3" value="nom" style="text;strokeColor=none;fillColor=none;align=left;verticalAlign=middle;spacingLeft=4;spacingRight=4;overflow=hidden;points=[[0,0.5],[1,0.5]];portConstraint=eastwest;rotatable=0;whiteSpace=wrap;html=1;" vertex="1" parent="LNo4fqlTwBd2RmvAoGv3-1">
          <mxGeometry y="60" width="140" height="30" as="geometry" />
        </mxCell>
        <mxCell id="LNo4fqlTwBd2RmvAoGv3-4" value="dateDeNaissance" style="text;strokeColor=none;fillColor=none;align=left;verticalAlign=middle;spacingLeft=4;spacingRight=4;overflow=hidden;points=[[0,0.5],[1,0.5]];portConstraint=eastwest;rotatable=0;whiteSpace=wrap;html=1;fontStyle=0" vertex="1" parent="LNo4fqlTwBd2RmvAoGv3-1">
          <mxGeometry y="90" width="140" height="30" as="geometry" />
        </mxCell>
        <mxCell id="LNo4fqlTwBd2RmvAoGv3-11" value="experience" style="text;strokeColor=none;fillColor=none;align=left;verticalAlign=middle;spacingLeft=4;spacingRight=4;overflow=hidden;points=[[0,0.5],[1,0.5]];portConstraint=eastwest;rotatable=0;whiteSpace=wrap;html=1;fontStyle=0" vertex="1" parent="LNo4fqlTwBd2RmvAoGv3-1">
          <mxGeometry y="120" width="140" height="30" as="geometry" />
        </mxCell>
        <mxCell id="LNo4fqlTwBd2RmvAoGv3-7" value="&lt;b&gt;TypeCuisine&lt;/b&gt;" style="swimlane;fontStyle=0;childLayout=stackLayout;horizontal=1;startSize=30;horizontalStack=0;resizeParent=1;resizeParentMax=0;resizeLast=0;collapsible=1;marginBottom=0;whiteSpace=wrap;html=1;" vertex="1" parent="1">
          <mxGeometry x="1500" y="40" width="140" height="90" as="geometry" />
        </mxCell>
        <mxCell id="LNo4fqlTwBd2RmvAoGv3-8" value="&lt;b&gt;&lt;u&gt;numTypeCuisine&lt;/u&gt;&lt;/b&gt;" style="text;strokeColor=none;fillColor=none;align=left;verticalAlign=middle;spacingLeft=4;spacingRight=4;overflow=hidden;points=[[0,0.5],[1,0.5]];portConstraint=eastwest;rotatable=0;whiteSpace=wrap;html=1;" vertex="1" parent="LNo4fqlTwBd2RmvAoGv3-7">
          <mxGeometry y="30" width="140" height="30" as="geometry" />
        </mxCell>
        <mxCell id="LNo4fqlTwBd2RmvAoGv3-10" value="nom" style="text;strokeColor=none;fillColor=none;align=left;verticalAlign=middle;spacingLeft=4;spacingRight=4;overflow=hidden;points=[[0,0.5],[1,0.5]];portConstraint=eastwest;rotatable=0;whiteSpace=wrap;html=1;" vertex="1" parent="LNo4fqlTwBd2RmvAoGv3-7">
          <mxGeometry y="60" width="140" height="30" as="geometry" />
        </mxCell>
        <mxCell id="LNo4fqlTwBd2RmvAoGv3-12" value="" style="group" vertex="1" connectable="0" parent="1">
          <mxGeometry x="1290" y="75" width="120" height="80" as="geometry" />
        </mxCell>
        <mxCell id="LNo4fqlTwBd2RmvAoGv3-13" value="" style="ellipse;whiteSpace=wrap;html=1;" vertex="1" parent="LNo4fqlTwBd2RmvAoGv3-12">
          <mxGeometry width="120" height="80" as="geometry" />
        </mxCell>
        <mxCell id="LNo4fqlTwBd2RmvAoGv3-14" value="Avoir" style="text;html=1;align=center;verticalAlign=middle;whiteSpace=wrap;rounded=0;" vertex="1" parent="LNo4fqlTwBd2RmvAoGv3-12">
          <mxGeometry x="30" y="10" width="60" height="30" as="geometry" />
        </mxCell>
        <mxCell id="LNo4fqlTwBd2RmvAoGv3-16" value="" style="endArrow=none;html=1;rounded=0;entryX=1;entryY=0.5;entryDx=0;entryDy=0;exitX=0;exitY=0.5;exitDx=0;exitDy=0;" edge="1" parent="LNo4fqlTwBd2RmvAoGv3-12" source="LNo4fqlTwBd2RmvAoGv3-13" target="LNo4fqlTwBd2RmvAoGv3-13">
          <mxGeometry width="50" height="50" relative="1" as="geometry">
            <mxPoint x="100" y="-20" as="sourcePoint" />
            <mxPoint x="150" y="-70" as="targetPoint" />
          </mxGeometry>
        </mxCell>
        <mxCell id="LNo4fqlTwBd2RmvAoGv3-17" style="edgeStyle=orthogonalEdgeStyle;rounded=0;orthogonalLoop=1;jettySize=auto;html=1;exitX=1;exitY=0.5;exitDx=0;exitDy=0;endArrow=none;startFill=0;" edge="1" parent="1" source="LNo4fqlTwBd2RmvAoGv3-13" target="LNo4fqlTwBd2RmvAoGv3-7">
          <mxGeometry relative="1" as="geometry" />
        </mxCell>
        <mxCell id="LNo4fqlTwBd2RmvAoGv3-19" value="0,n" style="edgeLabel;html=1;align=center;verticalAlign=middle;resizable=0;points=[];" vertex="1" connectable="0" parent="LNo4fqlTwBd2RmvAoGv3-17">
          <mxGeometry x="0.5348" y="-1" relative="1" as="geometry">
            <mxPoint as="offset" />
          </mxGeometry>
        </mxCell>
        <mxCell id="LNo4fqlTwBd2RmvAoGv3-18" style="edgeStyle=orthogonalEdgeStyle;rounded=0;orthogonalLoop=1;jettySize=auto;html=1;exitX=0;exitY=0.5;exitDx=0;exitDy=0;endArrow=none;startFill=0;" edge="1" parent="1" source="LNo4fqlTwBd2RmvAoGv3-13" target="LNo4fqlTwBd2RmvAoGv3-1">
          <mxGeometry relative="1" as="geometry" />
        </mxCell>
        <mxCell id="LNo4fqlTwBd2RmvAoGv3-20" value="1,n" style="edgeLabel;html=1;align=center;verticalAlign=middle;resizable=0;points=[];" vertex="1" connectable="0" parent="LNo4fqlTwBd2RmvAoGv3-18">
          <mxGeometry x="0.4049" y="-1" relative="1" as="geometry">
            <mxPoint as="offset" />
          </mxGeometry>
        </mxCell>
        <mxCell id="LNo4fqlTwBd2RmvAoGv3-21" value="&lt;b&gt;Restaurant&lt;/b&gt;" style="swimlane;fontStyle=0;childLayout=stackLayout;horizontal=1;startSize=30;horizontalStack=0;resizeParent=1;resizeParentMax=0;resizeLast=0;collapsible=1;marginBottom=0;whiteSpace=wrap;html=1;" vertex="1" parent="1">
          <mxGeometry x="1060" y="400" width="140" height="180" as="geometry" />
        </mxCell>
        <mxCell id="LNo4fqlTwBd2RmvAoGv3-22" value="&lt;b&gt;&lt;u&gt;numRestaurant&lt;/u&gt;&lt;/b&gt;" style="text;strokeColor=none;fillColor=none;align=left;verticalAlign=middle;spacingLeft=4;spacingRight=4;overflow=hidden;points=[[0,0.5],[1,0.5]];portConstraint=eastwest;rotatable=0;whiteSpace=wrap;html=1;" vertex="1" parent="LNo4fqlTwBd2RmvAoGv3-21">
          <mxGeometry y="30" width="140" height="30" as="geometry" />
        </mxCell>
        <mxCell id="LNo4fqlTwBd2RmvAoGv3-23" value="nom" style="text;strokeColor=none;fillColor=none;align=left;verticalAlign=middle;spacingLeft=4;spacingRight=4;overflow=hidden;points=[[0,0.5],[1,0.5]];portConstraint=eastwest;rotatable=0;whiteSpace=wrap;html=1;" vertex="1" parent="LNo4fqlTwBd2RmvAoGv3-21">
          <mxGeometry y="60" width="140" height="30" as="geometry" />
        </mxCell>
        <mxCell id="LNo4fqlTwBd2RmvAoGv3-24" value="adresse" style="text;strokeColor=none;fillColor=none;align=left;verticalAlign=middle;spacingLeft=4;spacingRight=4;overflow=hidden;points=[[0,0.5],[1,0.5]];portConstraint=eastwest;rotatable=0;whiteSpace=wrap;html=1;" vertex="1" parent="LNo4fqlTwBd2RmvAoGv3-21">
          <mxGeometry y="90" width="140" height="30" as="geometry" />
        </mxCell>
        <mxCell id="LNo4fqlTwBd2RmvAoGv3-25" value="styleCuisine" style="text;strokeColor=none;fillColor=none;align=left;verticalAlign=middle;spacingLeft=4;spacingRight=4;overflow=hidden;points=[[0,0.5],[1,0.5]];portConstraint=eastwest;rotatable=0;whiteSpace=wrap;html=1;" vertex="1" parent="LNo4fqlTwBd2RmvAoGv3-21">
          <mxGeometry y="120" width="140" height="30" as="geometry" />
        </mxCell>
        <mxCell id="LNo4fqlTwBd2RmvAoGv3-26" value="capacite" style="text;strokeColor=none;fillColor=none;align=left;verticalAlign=middle;spacingLeft=4;spacingRight=4;overflow=hidden;points=[[0,0.5],[1,0.5]];portConstraint=eastwest;rotatable=0;whiteSpace=wrap;html=1;" vertex="1" parent="LNo4fqlTwBd2RmvAoGv3-21">
          <mxGeometry y="150" width="140" height="30" as="geometry" />
        </mxCell>
        <mxCell id="LNo4fqlTwBd2RmvAoGv3-27" value="" style="group" vertex="1" connectable="0" parent="1">
          <mxGeometry x="1070" y="250" width="120" height="80" as="geometry" />
        </mxCell>
        <mxCell id="LNo4fqlTwBd2RmvAoGv3-28" value="" style="ellipse;whiteSpace=wrap;html=1;" vertex="1" parent="LNo4fqlTwBd2RmvAoGv3-27">
          <mxGeometry width="120" height="80" as="geometry" />
        </mxCell>
        <mxCell id="LNo4fqlTwBd2RmvAoGv3-29" value="Employer" style="text;html=1;align=center;verticalAlign=middle;whiteSpace=wrap;rounded=0;" vertex="1" parent="LNo4fqlTwBd2RmvAoGv3-27">
          <mxGeometry x="30" y="10" width="60" height="30" as="geometry" />
        </mxCell>
        <mxCell id="LNo4fqlTwBd2RmvAoGv3-30" value="role" style="text;html=1;align=center;verticalAlign=middle;whiteSpace=wrap;rounded=0;container=0;" vertex="1" parent="LNo4fqlTwBd2RmvAoGv3-27">
          <mxGeometry x="30" y="40" width="60" height="30" as="geometry" />
        </mxCell>
        <mxCell id="LNo4fqlTwBd2RmvAoGv3-31" value="" style="endArrow=none;html=1;rounded=0;entryX=1;entryY=0.5;entryDx=0;entryDy=0;exitX=0;exitY=0.5;exitDx=0;exitDy=0;" edge="1" parent="LNo4fqlTwBd2RmvAoGv3-27" source="LNo4fqlTwBd2RmvAoGv3-28" target="LNo4fqlTwBd2RmvAoGv3-28">
          <mxGeometry width="50" height="50" relative="1" as="geometry">
            <mxPoint x="100" y="-20" as="sourcePoint" />
            <mxPoint x="150" y="-70" as="targetPoint" />
          </mxGeometry>
        </mxCell>
        <mxCell id="LNo4fqlTwBd2RmvAoGv3-32" style="edgeStyle=orthogonalEdgeStyle;rounded=0;orthogonalLoop=1;jettySize=auto;html=1;exitX=0.5;exitY=0;exitDx=0;exitDy=0;endArrow=none;startFill=0;" edge="1" parent="1" source="LNo4fqlTwBd2RmvAoGv3-28" target="LNo4fqlTwBd2RmvAoGv3-1">
          <mxGeometry relative="1" as="geometry" />
        </mxCell>
        <mxCell id="LNo4fqlTwBd2RmvAoGv3-34" value="0,n" style="edgeLabel;html=1;align=center;verticalAlign=middle;resizable=0;points=[];" vertex="1" connectable="0" parent="LNo4fqlTwBd2RmvAoGv3-32">
          <mxGeometry x="0.5349" y="1" relative="1" as="geometry">
            <mxPoint as="offset" />
          </mxGeometry>
        </mxCell>
        <mxCell id="LNo4fqlTwBd2RmvAoGv3-33" style="edgeStyle=orthogonalEdgeStyle;rounded=0;orthogonalLoop=1;jettySize=auto;html=1;exitX=0.5;exitY=1;exitDx=0;exitDy=0;endArrow=none;startFill=0;" edge="1" parent="1" source="LNo4fqlTwBd2RmvAoGv3-28" target="LNo4fqlTwBd2RmvAoGv3-21">
          <mxGeometry relative="1" as="geometry" />
        </mxCell>
        <mxCell id="LNo4fqlTwBd2RmvAoGv3-35" value="0,n" style="edgeLabel;html=1;align=center;verticalAlign=middle;resizable=0;points=[];" vertex="1" connectable="0" parent="LNo4fqlTwBd2RmvAoGv3-33">
          <mxGeometry x="0.5687" y="-1" relative="1" as="geometry">
            <mxPoint as="offset" />
          </mxGeometry>
        </mxCell>
      </root>
    </mxGraphModel>
  </diagram>
</mxfile>
